<svg width="215" height="39" viewBox="0 0 215 39" fill="none" xmlns="http://www.w3.org/2000/svg">
<g filter="url(#filter0_d_2_1558)">
<path d="M18.5333 29.5765C23.4732 29.5775 26.08 26.0927 26.0808 21.7362C26.0816 18.0767 23.8651 15.0702 21.1035 14.5904C23.5541 14.0245 25.5772 11.5853 25.5779 7.92575C25.5787 4.0484 23.0511 0.519075 18.1113 0.518087L4.45858 0.515355L4.45277 29.5737L18.5333 29.5765ZM16.9032 12.1499L9.97957 12.1485L9.98083 5.83147L16.9044 5.83286C18.7715 5.83323 19.9381 7.184 19.9377 9.01376C19.9373 10.8435 18.7702 12.1503 16.9032 12.1499ZM17.0952 24.2176L9.97715 24.2162L9.9785 17.4635L17.0966 17.4649C19.2748 17.4654 20.4414 19.034 20.441 20.8637C20.4406 22.9549 19.1956 24.218 17.0952 24.2176ZM46.422 30.1049C54.2791 30.1064 59.9982 23.8341 59.9999 15.0774C60.0017 6.3207 54.2852 0.0461013 46.4281 0.0445294C38.6098 0.0429652 32.8908 6.31528 32.8891 15.072C32.8873 23.8287 38.6038 30.1033 46.422 30.1049ZM46.4231 24.6156C41.6389 24.6146 38.5669 20.4753 38.5679 15.0731C38.569 9.62741 41.6427 5.53285 46.427 5.5338C51.2112 5.53476 54.3221 9.63056 54.321 15.0763C54.32 20.4784 51.2074 24.6165 46.4231 24.6156ZM79.4841 30.1115C87.3801 30.113 91.193 25.1909 91.1944 17.959L91.1979 0.532709L85.5579 0.53158L85.5544 17.7836C85.5536 21.8352 83.4916 24.623 79.4852 24.6222C75.4789 24.6214 73.379 21.8328 73.3798 17.7812L73.3833 0.529145L67.7822 0.528024L67.7787 17.9979C67.7772 25.1426 71.5881 30.1099 79.4841 30.1115ZM123.398 29.5975L123.404 0.539152L117.881 0.538047L117.877 18.7921L105.862 0.535642L100.183 0.534506L100.177 29.5928L105.7 29.5939L105.704 10.6428L118.07 29.5964L123.398 29.5975ZM144.986 30.1246C150.704 30.1257 153.972 26.5975 155.839 22.982L151.095 20.4106C150.005 22.8065 147.671 24.6358 144.987 24.6353C140.28 24.6344 136.858 20.5821 136.86 15.0928C136.861 9.60351 140.284 5.55258 144.991 5.55352C147.675 5.55406 150.008 7.42785 151.097 9.78062L155.843 7.16763C154.015 3.55131 150.71 0.0653923 144.992 0.0642484C137.213 0.0626921 131.182 6.16068 131.181 15.0916C131.179 24.0226 137.207 30.123 144.986 30.1246ZM181.393 29.6091L181.394 24.1634L168.558 24.1608L168.56 17.5824L181.123 17.5849L181.124 12.1392L168.561 12.1367L168.562 5.9939L181.398 5.99647L181.399 0.550755L163.04 0.547082L163.034 29.6054L181.393 29.6091ZM210.604 29.6149L204.772 18.5481C207.573 17.808 210.452 15.0639 210.453 9.92319C210.454 4.52104 207.148 0.555906 201.742 0.554824L189.606 0.552397L189.6 29.6107L195.124 29.6118L195.126 19.2867L199.171 19.2876L204.264 29.6136L210.604 29.6149ZM200.922 13.8422L195.127 13.841L195.128 5.99921L200.924 6.00037C203.141 6.00082 204.813 7.48238 204.813 9.92206C204.812 12.3617 203.139 13.8426 200.922 13.8422Z" fill="#FF4252"/>
<path d="M20.991 14.1032L21.0179 15.083C23.4724 15.5094 25.5815 18.2441 25.5808 21.7361C25.5804 23.8178 24.9578 25.6507 23.7869 26.9566C22.623 28.2548 20.8777 29.077 18.5334 29.0765L4.95287 29.0738L4.95848 1.01546L18.1112 1.01809C20.4536 1.01856 22.182 1.85125 23.3282 3.10557C24.4812 4.36729 25.0783 6.09268 25.0779 7.92565C25.0772 11.3983 23.1729 13.5994 20.991 14.1032ZM9.47957 12.1484L9.47947 12.6484L9.97947 12.6485L16.9031 12.6499C17.9586 12.6501 18.8539 12.2776 19.4837 11.6117C20.1104 10.949 20.4375 10.035 20.4377 9.01386C20.4379 7.99324 20.1116 7.07025 19.4881 6.39742C18.8606 5.72036 17.9651 5.33307 16.9045 5.33286L9.98093 5.33147L9.48093 5.33137L9.48083 5.83137L9.47957 12.1484ZM9.47715 24.2161L9.47705 24.7161L9.97705 24.7162L17.0951 24.7176C18.246 24.7178 19.2218 24.3698 19.9102 23.6776C20.5981 22.9857 20.9408 22.0085 20.941 20.8638C20.9412 19.8453 20.6163 18.8694 19.9559 18.1422C19.2891 17.408 18.3141 16.9652 17.0967 16.9649L9.9786 16.9635L9.4786 16.9634L9.4785 17.4634L9.47715 24.2161ZM105.204 10.6427L105.201 29.0938L100.677 29.0929L100.683 1.03461L105.592 1.03559L117.46 19.067L118.377 20.4608L118.377 18.7922L118.381 1.03815L122.904 1.03905L122.899 29.0974L118.34 29.0965L106.123 10.3696L105.205 8.96189L105.204 10.6427ZM168.058 24.1607L168.058 24.6607L168.558 24.6608L180.894 24.6633L180.893 29.109L163.534 29.1055L163.54 1.04718L180.899 1.05065L180.898 5.49637L168.562 5.4939L168.062 5.4938L168.062 5.9938L168.061 12.1366L168.061 12.6366L168.561 12.6367L180.624 12.6391L180.623 17.0848L168.56 17.0824L168.06 17.0823L168.06 17.5823L168.058 24.1607ZM204.33 18.7812L209.776 29.1147L204.575 29.1137L199.619 19.0664L199.482 18.7876L199.171 18.7876L195.126 18.7867L194.626 18.7866L194.626 19.2866L194.624 29.1117L190.1 29.1108L190.106 1.0525L201.742 1.05482C204.315 1.05534 206.354 1.9952 207.754 3.54834C209.159 5.10719 209.953 7.32237 209.953 9.92309C209.952 14.8462 207.217 17.3849 204.644 18.0647L204.037 18.2252L204.33 18.7812ZM194.627 13.8409L194.627 14.3409L195.127 14.341L200.922 14.3422C202.143 14.3424 203.246 13.9335 204.047 13.1559C204.851 12.3759 205.313 11.2609 205.313 9.92216C205.313 8.58343 204.852 7.46823 204.048 6.6879C203.248 5.91004 202.145 5.50062 200.924 5.50037L195.128 5.49921L194.628 5.49911L194.628 5.99911L194.627 13.8409ZM59.4999 15.0773C59.4982 23.6057 53.9576 29.6064 46.4221 29.6049C38.9265 29.6034 33.3873 23.6014 33.3891 15.0721C33.3908 6.54273 38.9323 0.54303 46.428 0.544529C53.9634 0.546037 59.5016 6.54895 59.4999 15.0773ZM38.0679 15.073C38.0674 17.8648 38.8607 20.3667 40.3103 22.1818C41.7671 24.0058 43.8726 25.1151 46.423 25.1156C48.973 25.1161 51.0882 24.0081 52.5553 22.1856C54.0157 20.3715 54.8205 17.8696 54.821 15.0764C54.8216 12.2621 54.0182 9.7593 52.5576 7.94927C51.0903 6.1308 48.9753 5.03431 46.4271 5.0338C43.8784 5.03329 41.7721 6.12936 40.3137 7.94817C38.8624 9.75801 38.0685 12.2602 38.0679 15.073ZM90.6944 17.9589C90.6937 21.4921 89.7622 24.3959 87.9297 26.4114C86.1044 28.4192 83.3246 29.6122 79.4842 29.6115C75.6452 29.6107 72.8652 28.4065 71.0399 26.3972C69.2077 24.3801 68.278 21.4863 68.2787 17.998L68.2821 1.02812L72.8832 1.02904L72.8798 17.7811C72.8794 19.8876 73.4249 21.7255 74.5492 23.045C75.6832 24.3758 77.3573 25.1218 79.4851 25.1222C81.6132 25.1226 83.2789 24.377 84.4039 23.0452C85.5186 21.7255 86.054 19.8881 86.0544 17.7837L86.0578 1.03168L90.6978 1.03261L90.6944 17.9589ZM155.165 23.1849C153.314 26.546 150.221 29.6256 144.986 29.6246C137.512 29.6231 131.679 23.7768 131.681 15.0917C131.682 6.40673 137.518 0.562753 144.992 0.564248C150.233 0.565297 153.359 3.61345 155.173 6.96565L151.31 9.09255C150.075 6.82892 147.723 5.05407 144.991 5.05352C139.935 5.05251 136.361 9.4066 136.36 15.0927C136.358 20.7788 139.931 25.1343 144.987 25.1353C147.718 25.1358 150.076 23.3997 151.312 21.0973L155.165 23.1849Z" stroke="black"/>
</g>
<defs>
<filter id="filter0_d_2_1558" x="0.452759" y="0.0445557" width="214.152" height="38.08" filterUnits="userSpaceOnUse" color-interpolation-filters="sRGB">
<feFlood flood-opacity="0" result="BackgroundImageFix"/>
<feColorMatrix in="SourceAlpha" type="matrix" values="0 0 0 0 0 0 0 0 0 0 0 0 0 0 0 0 0 0 127 0" result="hardAlpha"/>
<feOffset dy="4"/>
<feGaussianBlur stdDeviation="2"/>
<feComposite in2="hardAlpha" operator="out"/>
<feColorMatrix type="matrix" values="0 0 0 0 0 0 0 0 0 0 0 0 0 0 0 0 0 0 0.25 0"/>
<feBlend mode="normal" in2="BackgroundImageFix" result="effect1_dropShadow_2_1558"/>
<feBlend mode="normal" in="SourceGraphic" in2="effect1_dropShadow_2_1558" result="shape"/>
</filter>
</defs>
</svg>
